<?xml version="1.0" encoding="utf-8"?>
<!-- Generator: Adobe Illustrator 19.0.1, SVG Export Plug-In . SVG Version: 6.00 Build 0)  -->
<svg version="1.1" id="Layer_1" xmlns="http://www.w3.org/2000/svg" xmlns:xlink="http://www.w3.org/1999/xlink" x="0px" y="0px"
	 viewBox="-275.7 61 27.9 58.6" style="enable-background:new -275.7 61 27.9 58.6;" xml:space="preserve">
<style type="text/css">
	.st0{fill:#ffffff;}
</style>
<g>
	<path class="st0" d="M-266.8,119.5c1.9-0.9,3.1-2.5,4.3-4.1c0.7-0.9,1.7-2.9,1.8-3.7c0.1-2.5,0.2-4.5,0.3-6.6
		c0.1-0.4,0.6-1.1,1.1-1.3c1-0.4,2-0.6,3.2-0.9c0,0,6-0.9,7.9-6.8c0.4-1.4-0.2-3-0.1-4.6c0.1-1.9,0.1-3.8-1.6-5.2
		c-0.5-0.5-0.6-1.3-1-1.9c-0.9-1.5-1.5-3.3-2.8-4.3c-1.4-1.1-2.1-2.3-2.8-3.7c-0.8-1.7-1.8-3.4-2.4-5.2c-0.8-2.2-1.1-4.4-0.9-6.8
		c0.1-1.2-0.1-2.5-1.3-3.3c-0.3,1.3-0.2,2.6-0.7,3.7c-1.1,2.5-2.3,5-3.7,7.4c-1.4,2.3-3,4.5-4.6,6.7c-1.1,1.4-1.9,2.9-2,4.6
		c-0.1,1.5-0.8,2.6-1.7,3.6c-0.9,1-1.2,2-1.9,3.2c-0.2,3.2,0.7,6,2.4,8.8c1.6,2.6,3.4,4.6,6.5,5.1c1.3,0.3,2.6,0.7,4,1.1
		c0.7,4.4-0.2,8.3-3.3,11.5c-0.4,0.4-1,0.8-1.6,0.9c-0.3,0-0.6,0.1-0.8,0.1c0.4,0.7,0.9,1.3,1.4,1.9
		C-267,119.6-266.9,119.5-266.8,119.5z"/>
</g>
</svg>
