<?xml version="1.0" encoding="utf-8"?>
<!-- Generator: Adobe Illustrator 19.1.0, SVG Export Plug-In . SVG Version: 6.00 Build 0)  -->
<svg version="1.1" id="Layer_1" xmlns="http://www.w3.org/2000/svg" xmlns:xlink="http://www.w3.org/1999/xlink" x="0px" y="0px"
	 viewBox="948.8 -628.3 1083.6 1806.8" style="enable-background:new 948.8 -628.3 1083.6 1806.8;" xml:space="preserve">
<style type="text/css">
	.st0{fill:#FFFFFF;stroke:#252830;stroke-width:37;stroke-miterlimit:10;}
</style>
<g>
	<g id="svg_1">
		<path id="svg_2" class="st0" d="M1491.9,1083.6C1453.2,893.3,1384.8,735,1302,588.2c-61.4-108.9-132.5-209.4-198.4-314.9
			c-22-35.2-40.9-72.5-62-109.1c-42.2-73.1-76.4-157.9-74.3-267.9c2.1-107.5,33.2-193.7,78-264.2c73.7-115.9,197.2-211,362.9-236
			c135.5-20.4,262.5,14.1,352.5,66.7c73.6,43,130.6,100.5,173.9,168.3c45.2,70.7,76.4,154.3,79,263.2c1.3,55.8-7.8,107.5-20.7,150.4
			c-13,43.4-34,79.7-52.6,118.5c-36.4,75.7-82.1,145-127.9,214.3C1676.1,584.2,1548,794.9,1491.9,1083.6z"/>
		<circle id="svg_4" cx="1490.5" cy="-105" r="183.3"/>
	</g>
</g>
</svg>
