<?xml version="1.0" encoding="utf-8"?>
<!-- Generator: Adobe Illustrator 19.1.0, SVG Export Plug-In . SVG Version: 6.00 Build 0)  -->
<svg version="1.1" id="Layer_1" xmlns="http://www.w3.org/2000/svg" xmlns:xlink="http://www.w3.org/1999/xlink" x="0px" y="0px"
	 viewBox="123 29 1205 504" style="enable-background:new 123 29 1205 504;" xml:space="preserve">
<style type="text/css">
	.st0{fill:#1D9400;}
</style>
<title>planted-people-header</title>
<path class="st0" d="M265.5,73.3c-1.2-2.6-3.5-3.9-5.6-5.6c-1.4-1.2-2.6-2.6-3.5-4.2c-1.1-1.8-0.9-1.9,0.8-3.2
	c1.2-1,2.7-1.9,3.5-3.6c1-2.4,1.3-5,0.9-7.6c-0.1-1.9-1-3.7-2.6-4.8c-1.5-1-2.8-2.2-3.9-3.6c-0.7-0.7-1.4-1.3-2.3-1.7
	c-4.8-2.6-9.2-6-12.9-10.1c0.1,1,0.4,2,0.8,2.9c2,4.1,1.6,8.4,0.6,12.5c-0.6,2.5-1.9,4.8-1.4,7.5c0,0.1-0.2,0.2-0.4,0.7
	c-1.6,0-3.4,0.2-5.1,0.1c-2.1-0.1-4.2-0.1-5.8,1.8c-0.7,0.4-1.4,0.8-2.1,1.1c-1.7,1-3.7,1.7-4.8,3.1c-1.1,1.4-2.5,2.4-4.1,3.1
	c-1.9,1-3.8,1.9-5.8,2.7c-2.4,0.9-5,1.2-7.6,1c-1.4-0.2-2.8,0.3-3.7,1.5c1.4,0.3,2.9,0.2,4.1,0.8c2.8,1.2,5.6,2.6,8.3,4.1
	c2.6,1.6,5,3.4,7.5,5.2c1.4,1.3,3.2,2,5.1,2.2c1.5,0.1,2.9,0.8,4,1.9c1.1,0.8,2.3,1.6,3.6,2.1c3.5,0.2,6.9-0.8,9.9-2.7
	c2.9-1.8,5.1-3.8,5.7-7.3c0.3-1.4,0.8-2.9,1.2-4.5c4.9-0.8,9.3,0.2,12.9,3.7c0.5,0.5,0.8,1.1,1,1.8c0,0.3,0.1,0.7,0.1,0.9
	c0.8-0.5,1.5-1,2.1-1.6C265.6,73.6,265.6,73.5,265.5,73.3z M249.4,66.2c-0.6-0.2-1.1-0.6-1.4-1.2c-0.4-1.2-0.7-2.4-1-3.6
	c2.2-0.1,4.2-0.2,6.4-0.2c0.4,0.1,0.8,0.3,1,0.7c0.9,1.5,1.6,2.9,2.5,4.7C254,66.4,251.8,66.3,249.4,66.2z"/>
<path d="M382.6,356.9c-0.7-2.1-1.8-4.2-1.5-6.7c-0.1-0.7-0.4-1.3-1-1.8c-2-1.6-3.1-3.8-4.4-6c-0.7-1.2-1.3-2.5-2.1-3.7
	c-1.9-3-3.9-5.8-5.5-9c-1.5-3.1-3.4-6.1-5.7-8.6c-2.8-3-5.3-6.3-7.9-9.4c-2.7-3.1-5.7-6.4-8.4-9.7c-2-2.5-3.9-5.1-5.9-7.6
	c-1.2-1.5-1-2.7-0.2-4.1c0.4-0.1,0.7-0.1,1.1-0.1c5.7,1.3,11.5,0.5,17.3,0.9c0.9,0.1,2,0.5,2.7-0.7s1.9-1.6,3.1-1.9
	c7.4-2.3,15-3.3,22.7-3.1c0.6,0,1.2,0,1.8-0.2c-0.3-1.6-1.5-1.1-2.4-1.2c-6.9-0.6-13.9,0.5-20.7,1.9c-4.1,0.8-8.3,1.3-12.4,1.8
	c-1.4,0-2.8-0.3-4.1-0.8c-1.2-0.5-2.6-0.7-3.9-0.5c-1.1,0.1-2.1,0-3.1-0.3c-2.2-0.7-4.4-1.6-6.5-2.6c-4.1-2-7.8-4.8-11-8.1
	c-5.8-6-10.2-13.1-14.4-20.2c-2.9-4.9-5.6-10-8.1-15.1c-1.9-4-3.4-8.2-5.1-12.5c5.7,2.5,11.1,4.8,16.4,7.2c7,3,14.4,4.8,21.8,6.5
	c2.2,0.4,4.4,0.7,6.6,0.7c0.5-0.1,1.1-0.2,1.6-0.3c-0.9-1.6-2.1-1.4-3.4-1.7c-2.1-0.1-4.2-0.4-6.3-1c-4.6-1.3-9-2.9-13.4-4.7
	c-4.1-1.9-8-4-11.9-6.3c-1.5-0.8-2.7-2.1-3.6-3.6c0.8-0.2,1.7-0.3,2.6-0.3c2.2,0,4.5,0.2,6.7,0.1c1.9,0.1,3.7-0.3,5.4-1.2
	c-0.2-0.2-0.5-0.4-0.8-0.6c-0.4-0.1-0.9-0.1-1.3-0.1c-4.9,0.6-9.7-0.7-14.3-2.4c-2.3-0.7-4-2.6-4.5-4.9c-0.5-2.1-0.8-4.2-0.9-6.4
	v-36.5c0-0.7,0.2-1.3,0.2-1.8c6.5,0,12.8,0.2,19,0c9.1-0.3,18-2.3,26.3-5.8c11.6-5,20.4-12.9,25.2-24.7c2.1-5.4,3.4-11.2,3.7-17
	c1.2-18.5-7.3-38-29-46c-8.3-2.9-17-4.5-25.7-4.7c-16.4-0.6-32.9,0.2-49.2,2.3c-0.9,0.2-1.8-0.1-2.5-0.7c-0.7,0.6-1.3,1-2.1,1.6
	c0.3,1.7,0.4,3.5,0.4,5.3c0.1,40.1,0,80.2,0.1,120.3c0,6.9-0.6,13.9-1.2,20.8c-0.1,1.2-0.5,2.4-1.2,3.5c-3.2,4.4-7.8,7.5-13,8.8
	c-5.5,1.3-11,0.7-16.4,0c-4.9-0.6-9.9-1.4-14.8-2.2c-0.6-0.1-1.1-0.1-1.7,0c1.2,0.7,2.5,1.3,3.8,1.7c1.3,0.6,2.7,1.3,4,2h0.2
	c4.1,0.7,8.4,1.4,12.6,2c3.2,0.3,6.6,0.4,9.9,0.6c2.1,0,4.1-0.1,6.1-0.3c0.6,0.1,1.1,0.2,1.7,0.3c0.1,0.2,0.1,0.4,0.1,0.6
	c-2.6,1.6-4.8,4.1-8.5,3c-1.5-0.6-3.2,0-3.9,1.3c2.5,1.8,5,0.4,7.4,0.7c0.2,1.1-0.2,2.3-1.1,2.9c-3,3.1-6.5,5.6-10.3,7.6
	c-6,3.1-12.2,5.6-18.6,7.5c-1.6,0.4-3,1.1-4.6,1.6s-3.2,1-4.9,1.4c-2.2,0.6-4.5,1.2-6.7,1.8c-1.4,0.4-2.9,0.9-4.4,1.2
	c-5.8,1.1-11.5,2.2-17.3,3.5c-4.9,1-10,2.1-14.9,3.1c-2.2,0.5-4.6,0.8-6.8,1.3c-1.8,0.5-3.6,1.1-5.4,1.7c-0.7,0.2-1.3,0.3-2,0.6
	c-4.5,1.5-8.8,2.9-13.2,4.4c-0.8,0.3-1.9,0.5-2.1,1.8c0.6,0.1,1.1,0.1,1.7,0c1.8-0.7,3.5-1.3,5.3-1.9c6.3-2.2,12.8-3.9,19.4-5
	c2.6-0.3,4.9-1.5,7.5-1.9c3.7-0.8,7.5-1.2,11.3-1.9c6.4-1.1,12.8-2,19-3.2c8.6-1.6,17.1-3.9,25.4-6.7c1.1-0.4,2.4-1.1,3.6-0.3
	c1.4,0.9,2.4,0.2,3.5-0.8c1.6-1.4,3.4-2.6,5.3-3.6c2.2-1.2,4.7-2.1,7-3.2c2.3-1.1,4.8-1.6,6.8-3.6c2.2-2.2,5.3-3.7,7.9-5.4
	c1.3-0.8,2.8-1.3,4.7-2.4c0.5-2.3,2.6-3.9,4.9-3.9c0.9-1.6,0.7-3.7,3.2-3.6c0.4,1.4-0.1,2.6-0.7,3.8c-0.3,0.7-0.9,1.3-0.8,1.9
	c0.4,3.1-1,5.9-1.8,8.8c-0.2,1.5-1.1,2.9-2.5,3.7c-1.4,0.9-1.6,1.6-1,3.4c0.3,0.6,0.4,1.3,0.3,2c-0.4,1.6-1,3.2-1.7,4.8
	c-2.8,6.1-5.6,12.3-8.5,18.5c-4.6,10-10,19.6-16.2,28.6c-7.2,10.6-17.4,18.7-29.3,23.4c-7.5,3-15.6,4.3-23.6,3.7
	c-4-0.3-8.2-0.8-12.2-1.3c-8.7-1.2-17.6-1.7-26.4-1.2c-8.3,0.6-16.4,2.4-24.2,5.5c-0.9,0.3-1.8,0.7-1.8,2.2c1.4-0.3,3-0.3,4.1-1
	c2-1.1,4.2-1.3,6.4-1.9c6.3-1.4,12.7-2,19.1-1.9c7,0.1,14.1,0.8,21,1.9c2,0.2,4,0.4,6,0.8c1.2,0.3,3,0.8,3.5,1.7
	c1,1.8,2.4,1.8,3.8,1.3c3.7-1.2,7.6-0.9,11.4-1c2.4,0,4.8-0.2,7.2-0.7c4.4-0.8,8.6-2.2,12.6-4.1c1.1-0.6,2.3-1.5,4.1-0.9
	c-0.3,1-0.8,2-1.3,2.9c-1.3,2-2.9,4-4.4,6c-5.5,7.4-11,14.9-16.6,22.1c-5.8,7.6-11,15.4-16,23.5c-4.1,6.6-8.2,13.2-11.8,20.1
	c-1.8,3.6-4.2,6.6-9,5.8l0,0c-1.7,0.1-2,0.9-1.1,2.2c1.5,2.1,1.5,2.5-0.6,3.9c-3.8,2.7-7.5,5.5-11.9,7.3c-0.3,0.3-0.5,0.6-0.8,0.9
	c1.5,0.9,2.7,1.6,4.2,2.5c2.7-4.8,7-7.5,12.4-9.9c-0.1,3.1-1.7,5.3-3.4,7.3s-3.4,4-5.3,6.3c1.2,0.2,2,0.3,2.9,0.6
	c-0.1,0.7-0.1,1.2-0.2,1.7c-0.8,1.9-1.5,3.8-2,5.8c-1.5,5.7-2.7,11.4-3.9,17.2c-0.7,3.2-1.1,6.6-3,9.4c-0.4,0.7-0.4,1.6,0,2.4
	c1.3,1.3,1.3,3,1.3,4.7c0,4.7-0.1,9.5,0.2,14.2c0.6,9,2.9,17.7,4.8,26.5c0.5,2.4,1.6,4.6,2.1,7c0.2,1.3,1.3,2.5,2.2,4
	c0.1-0.5,0.2-1,0.2-1.5l-1.7-6.5c-1.1-4.1-2.1-8.3-3.1-12.4c-0.2-0.8-0.3-1.6-0.3-2.4c-0.1-1.5-0.3-2.8-0.4-4.2
	c-0.5-3.6-0.9-7.3-1.2-10.9c-0.1-1.1-0.2-2.4,1-3.1c0.7,0.6,1.5,1.1,2.2,1.6c0.6-1.5-0.1-2.2-0.7-3.1c-1.6-2.9-2.9-5.9-2.7-9.4
	c0.7-8.8,2.2-17.5,4.6-26.1c0.5-2.3,1.2-4.7,2-6.9c0.8-1.7,1.7-3.4,2.7-5c0.4-0.7,0.8-1.4,1-2.1c0.3-2.9,0.7-5.7,2.6-8.1
	c0.1-0.3,0.2-0.7,0.2-1c0.3-1.2,0.8-2.4,1.2-3.6c2.6-5,5-10.2,7.8-15.2s6-10.2,9.1-15.2c1.1-1.9,2.6-3.7,3.8-5.5
	c0.8-1.1,1.7-2.2,2.5-3.5c2.1-3.4,4.2-6.8,6.4-10.2c0.3-0.5,0.9-0.8,1.4-0.9c0.6,0.3,1,0.7,1.1,1.3c0.5,2,0.2,4.1-0.9,5.9
	c-0.5,0.7-0.9,1.5-1.1,2.4c0.1,0.6,0.5,1.2,1,1.6c0.7,0.2,1.4,0,1.8-0.6c0.4-0.8,0.5-1.7,0.6-2.6c0.1-1.8,0-3.7,0-5.6
	c-0.1-2,0.9-3.9,2.7-4.8c0.8,0.7,1.4,1.1,2,1.7c1.4-1.2,1-2.2,0.2-3.2c-1.9-2.6-1.6-4.8,0.4-7.3c3.6-4.4,6.9-9,10.4-13.3
	c0.7-0.7,1.5-1.3,2.3-1.9c1.2,1.6,0.8,3.1,0.8,4.5c0,4.2,0.7,8.3,2,12.3c2,5.5,5.9,9.7,8.7,14.7c1.8,3.2,4,6.1,5.7,9.4
	c1.1,2.2,2.7,4.6,2.8,7.4c0,0.7,0.7,1.2,1,1.9c0.2-0.1,0.5-0.2,0.6-0.5c0-1.2-0.1-2.4-0.3-3.6c-0.7-2.2-1.6-4.3-2.6-6.4
	c-2.9-5.7-5.8-11.4-9.2-16.9c-2-3.5-3.4-7.2-4.1-11.2c-1.4-7.7-0.2-15,2.5-22.3c1.2-3.6,3.9-6.1,5.8-9.3c1.9-3.1,4.9-5,6.5-8.2
	c0.3-0.7,1.2-1,2.4-1.9c0.3,1.5,0.6,2.4,0.7,3.2c0.3,3,0.4,6,0.9,9.1c0.4,1.6,0.2,3.2-0.4,4.7c-0.4,1.1-1.1,2.2-1.7,3.4
	c-0.3,0.7-0.7,1.3,0.2,1.9c1.2-0.3,2.5-0.7,3.9-1c0.6,2.1,0.9,3.9,1.4,5.7c1.2,3.2,1.8,6.6,1.8,10c0,1-0.3,2.4,1.1,2.6
	c1.8,0.2,1.7-1.2,1.9-2.4c0.3-1.5,1-1.7,2.4-1.1c0.5,0.3,1,0.7,1.4,1.1c1,0.9,2.1,1,3.8,0.2c-0.7-0.7-1.4-1.3-2.2-1.8
	c-5-1.9-7.3-6.4-8.8-10.9c-1.1-3.8-1.8-7.6-2.1-11.5c-0.3-3.3-0.4-6.7-0.3-10c-0.1-1,0-2.2,1.3-2.6c1.3,0.6,1.1,2.8,3.1,2.6
	c0.8-2.1,0.3-4.4-1.2-6c-2.7-2.8-2.7-5.8-0.3-9.5c1.6-2.4,3.1-4.8,4.7-7.2c1-1.5,1.9-2.9,2.9-4.4c0.2,0,0.4,0.1,0.6,0.1
	c0.2,0.9,0.4,1.8,0.4,2.7c0,1.4-0.2,2.8-0.4,4.2c-0.6,4.8-1.1,9.5-0.3,14.2c0.2,1.1,0.2,2.3-0.1,3.5c-0.4,0.9-0.3,2,0.2,2.8
	c0.9,1.5,0.9,3.3,0.2,4.9c-0.4,1-0.3,2.1,0.3,3c0.8,1.4,1.4,2.9,1.8,4.5c1.6,4.8,3.4,9.6,4.6,14.5c0.7,2.9,3.1,5.3,2.7,8.5
	c-0.1,0.6,1,1.3,1.6,2c1.2,1.6,2.4,3.1,3.5,4.7c0.3,0.6,0.6,1.2,0.9,1.7c2.4,3.1,4.7,6.3,5.9,10.1c0.7,1.9,2.1,2.5,4.4,2.1
	c-0.2-1.9-1.6-3.2-2.6-4.8c-2.5-3.8-4.9-7.6-7.3-11.5c-0.6-0.9-0.6-2.2-1.2-2.9c-2.2-2.2-3-5.3-4.2-7.9c-1.7-4.1-3.2-8.3-4.2-12.6
	c-0.4-1.6,0-3.5-0.3-5.1s-1.4-3.5-1.8-5.3c-0.3-2.2-0.3-4.6-0.4-6.9c-0.1-4.6-0.3-9.1-0.4-13.6c-0.2-1.1,0.4-2.1,1.4-2.5
	c0.2,0.1,0.4,0.2,0.6,0.3c0.2,0.5,0.6,0.9,0.8,1.3c2,4.2,4.7,8.1,8,11.4c3.2,3.2,6.6,6,11.1,7.4c1.7,0.5,3,1.5,4.6,2.1
	c0.5,0.4,1.1,0.5,1.7,0.6c2.9,0.1,5.7,0.8,8.2,2.2c1.7,0.9,3.7,1.4,5.7,1.2c-0.4-1.2-1.4-2.1-2.7-2.4l-2.6-0.7
	c-3.8-1.1-6.7-4.4-11-4.2c-0.3,0-0.6-0.2-0.8-0.3c-4.6-2.5-9.1-5-12.3-9.3c-2.2-2.9-4.5-5.8-5.7-9.3c-1.6-4-2.8-8.1-3.7-12.3
	c-0.5-1.7-0.6-3.5-0.4-5.3c1.2-7.2,4.8-13.4,8.4-19.6c0.4-0.6,0.7-1.2,1-1.9c1-2.1,1.8-4.4,2.7-6.5c1.3-3.4,2.7-6.8,4.1-10.2
	c1.1-1.8,1.8-3.8,2.1-5.9c0.3-2.1,1.5-4,3.2-5.1c1,1.6,2.5,2.9,2.8,4.4c0.7,3.1,1,6.2,1,9.3c0.1,5.1-0.2,10.2-0.3,15.3
	c0,0.9-0.1,2,1.1,2.8c0.3-0.5,0.5-1.1,0.7-1.7c0.7-5.1,1.2-10.2,1.8-15.2c0.1-1.2-0.1-2.5,1.1-3.2c1.4,0.3,1.9,1.6,2.6,2.6
	c1.3,2.2,2.5,4.6,4.4,6.4c1.1,1.1,1.9,2.5,3,3.7c1,1.1,1.2,2.6,0.7,4c-2.1,5.7-5,10.8-10.5,14.1c-0.3,0.2-0.6,0.6-0.8,0.9
	c0.1,0.2,0.1,0.3,0.2,0.6c0.8-0.1,1.6-0.3,2.4-0.6c4.5-2.4,8.1-6.3,10.1-11.1c0.4-0.8,0.8-1.6,1.3-2.4c0.6,1,1.1,2.1,1.4,3.2
	c1.3,5.1,0.7,10.2-0.2,15.3c-0.4,2.1-0.8,4.2,0.2,6.4c0.4-0.8,0.8-1.7,0.9-2.7c0.4-5.3,0.9-10.5,1-15.8c0.1-2.1,0.6-3.6,2.8-4.1
	c0.1-0.1,0.2-0.3,0.2-0.5c-1-2.6-4.9-3.9-3.1-7.8c0.4,0.1,0.7,0.3,1,0.6c2.6,2.1,4.1,5,5.8,7.7c0.4,0.6,0.5,1.3,0.5,2
	c-0.3,1.3,0.3,1.9,1.3,2.6c3.2,2.1,6.1,4.6,8.7,7.4c2.8,2.9,4.7,6.6,5.6,10.5c0.6,3,0.8,6,0.6,9.1c-0.1,2.4-0.3,4.8-2,6.8
	c-0.8,1-0.8,2.4-0.3,4.1c0.7-0.7,1.4-1.4,1.9-2.2c2.1-4.4,3.8-9,3.4-14.1c0-0.8,0.3-1.6,0.7-2.4c0.8,0.4,1.5,0.9,2.2,1.5
	c2.6,2.9,5.3,5.7,7.7,8.6c3.7,4.5,7.2,9.2,11,13.5c4.5,5,8.3,10.5,11.5,16.5c0.5,0.9,1.1,1.7,1.7,2.5c1.3,2.1,2.6,4.2,3.9,6.4
	c1.9,3.1,2.5,6.8,4.5,10s3.2,7.3,4.4,11.1c1.1,4,1.7,8.2,2.6,12.3c0.1,0.5,0.3,1,0.6,1.5c0.3-0.6,0.4-1.2,0.5-1.9
	c-0.2-4.3-0.9-8.5-2.1-12.6C384.7,363.2,383.5,360.1,382.6,356.9z M298.1,98.9c1.6-0.2,3.2-0.7,5-0.8c6.6-0.6,13.2-1,19.7,0.9
	c8.6,2.3,14.2,7.6,15.6,16.8c1.7,10.5-2.2,22.8-17.2,27.1c-7.2,2-14.3,1.8-21.6,0.9c-0.5-0.1-1-0.2-1.4-0.4L298.1,98.9L298.1,98.9z
	 M305.4,263.1c-1.3-1.1-2.5-1.7-3-2.6c-3.5-5.3-6.8-10.6-8.8-16.7c-0.6-1.8-1.2-3.6-1.7-5.4c-0.2-1.1-0.1-2.4-0.2-3.6
	c0.2-0.1,0.4-0.1,0.7-0.2c0.2,0.3,0.6,0.6,0.9,1c3.6,6.4,7.2,12.9,10.7,19.4c0.8,1.5,1.4,3.1,1.8,4.7
	C305.9,260.5,305.5,261.5,305.4,263.1L305.4,263.1z"/>
<g>
	<path d="M263.8,74.9c10.5-1.8,25.3-3.1,46.1-3.1c21.1,0,36.1,4,46.1,12.1c9.6,7.6,16.1,20.2,16.1,34.9c0,14.8-4.9,27.3-13.9,35.8
		c-11.6,11-28.9,15.9-49.1,15.9c-4.5,0-8.5-0.2-11.6-0.7v54h-33.8L263.8,74.9L263.8,74.9z M297.6,143.5c2.9,0.7,6.5,0.9,11.4,0.9
		c18.1,0,29.3-9.2,29.3-24.6c0-13.9-9.6-22.2-26.7-22.2c-6.9,0-11.6,0.7-14.1,1.3v44.6H297.6z"/>
	<path d="M393.9,72.9h34.3v122.3h60v28.7h-94.3V72.9L393.9,72.9z"/>
	<path d="M544.9,185.1l-10.8,38.8h-35.4l46.1-151h44.8l46.8,151h-36.7l-11.6-38.8H544.9z M583.2,159.6l-9.4-32
		c-2.7-9-5.4-20.2-7.6-29.1h-0.4c-2.2,9-4.5,20.4-6.9,29.1l-9,32H583.2z"/>
	<path d="M656.7,223.9v-151h39.9l31.4,55.3c9,15.9,17.9,34.7,24.6,51.7h0.7c-2.2-19.9-2.9-40.3-2.9-62.9V72.9h31.4v151H746
		l-32.3-58.2c-9-16.1-18.8-35.6-26.2-53.3l-0.7,0.2c0.9,19.9,1.3,41.2,1.3,65.9V224h-31.4V223.9L656.7,223.9z"/>
	<path d="M840.3,101.6h-40.5V72.9h116v28.7h-41.2v122.3h-34.3V101.6z"/>
	<path d="M1023.8,160.1h-55.6v35.8h62v28H934v-151h93.2v28h-58.9v31.4h55.6L1023.8,160.1L1023.8,160.1z"/>
	<path d="M1053.6,74.9c12.5-2,28.9-3.1,46.1-3.1c28.7,0,47.3,5.2,61.8,16.1c15.7,11.6,25.5,30.2,25.5,56.9
		c0,28.9-10.5,48.8-25.1,61.2c-15.9,13.2-40.1,19.5-69.7,19.5c-17.7,0-30.2-1.1-38.8-2.2V74.9H1053.6z M1088,198.1
		c2.9,0.7,7.6,0.7,11.9,0.7c30.9,0.2,51.1-16.8,51.1-52.9c0.2-31.4-18.1-47.9-47.5-47.9c-7.6,0-12.5,0.7-15.5,1.3V198.1z"/>
</g>
<g>
	<path d="M403.5,263.9c10.5-1.8,25.3-3.1,46.1-3.1c21.1,0,36.1,4,46.1,12.1c9.6,7.6,16.1,20.2,16.1,34.9s-4.9,27.3-13.9,35.8
		c-11.6,11-28.9,15.9-49.1,15.9c-4.5,0-8.5-0.2-11.6-0.7v54h-33.8L403.5,263.9L403.5,263.9z M437.4,332.5c2.9,0.7,6.5,0.9,11.4,0.9
		c18.1,0,29.3-9.2,29.3-24.6c0-13.9-9.6-22.2-26.7-22.2c-6.9,0-11.6,0.7-14.1,1.3v44.6L437.4,332.5L437.4,332.5z"/>
	<path d="M623.5,349.1h-55.6v35.8h62v28h-96.3v-151h93.2v28H568v31.4h55.6L623.5,349.1L623.5,349.1z"/>
	<path d="M791.5,335.8c0,49.5-30,79.5-74.1,79.5c-44.8,0-71-33.8-71-76.8c0-45.2,28.9-79.1,73.5-79.1
		C766.2,259.5,791.5,294.2,791.5,335.8z M682.4,337.9c0,29.6,13.9,50.4,36.7,50.4c23.1,0,36.3-22,36.3-51.3
		c0-27.1-13-50.4-36.5-50.4C695.9,286.6,682.4,308.5,682.4,337.9z"/>
	<path d="M813.9,263.9c10.5-1.8,25.3-3.1,46.1-3.1c21.1,0,36.1,4,46.1,12.1c9.6,7.6,16.1,20.2,16.1,34.9s-4.9,27.3-13.9,35.8
		c-11.6,11-28.9,15.9-49.1,15.9c-4.5,0-8.5-0.2-11.6-0.7v54h-33.8V263.9H813.9z M847.7,332.5c2.9,0.7,6.5,0.9,11.4,0.9
		c18.1,0,29.3-9.2,29.3-24.6c0-13.9-9.6-22.2-26.7-22.2c-6.9,0-11.6,0.7-14.1,1.3L847.7,332.5L847.7,332.5z"/>
	<path d="M944,261.9h34.3v122.3h60v28.7H944L944,261.9L944,261.9z"/>
	<path d="M1148.3,349.1h-55.6v35.8h62v28h-96.3v-151h93.2v28h-58.9v31.4h55.6L1148.3,349.1L1148.3,349.1z"/>
</g>
</svg>
