<?xml version="1.0" encoding="utf-8"?>
<!-- Generator: Adobe Illustrator 19.1.0, SVG Export Plug-In . SVG Version: 6.00 Build 0)  -->
<svg version="1.1" id="Layer_1" xmlns="http://www.w3.org/2000/svg" xmlns:xlink="http://www.w3.org/1999/xlink" x="0px" y="0px"
	 viewBox="-360 54 272.7 450.6" style="enable-background:new -360 54 272.7 450.6;" xml:space="preserve">
<style type="text/css">
	.st0{fill:none;}
	.st1{fill:#104402;}
	.st2{font-family:'MyriadPro-Bold';}
	.st3{font-size:200px;}
	.st4{fill:#1D9400;}
	.st5{display:none;}
	.st6{display:inline;fill:#1D9400;}
</style>
<polygon class="st0" points="-138.3,347.6 -255.3,347.6 -254.3,188.6 -137.3,188.6 "/>
<text transform="matrix(1 0 0 1 -254.3664 330.6344)" class="st1 st2 st3">P</text>
<polygon class="st0" points="-181.4,320.6 -298.4,320.6 -297.4,161.6 -180.4,161.6 "/>
<text transform="matrix(1 0 0 1 -297.5277 303.6344)" class="st4 st2 st3">P</text>
<g class="st5">
	<path class="st6" d="M-232.7,93.7c-1.1-2.3-3.1-3.5-5-5c-1.2-1-2.3-2.4-3.1-3.8c-1-1.6-0.8-1.7,0.7-2.9c1.1-0.9,2.4-1.7,3.1-3.2
		c1-2.3,1.1-4.5,0.8-6.8c-0.2-1.7-0.8-3.4-2.3-4.3c-1.4-0.9-2.5-1.9-3.5-3.2c-0.5-0.6-1.3-1.1-2.1-1.5c-4.3-2.4-8.1-5.3-11.5-9
		c0.1,0.9,0.3,1.8,0.7,2.6c1.8,3.7,1.4,7.5,0.5,11.2c-0.5,2.2-1.7,4.3-1.3,6.7c0,0.1-0.2,0.2-0.4,0.6c-1.4,0-3,0.2-4.6,0.1
		c-1.9-0.1-3.8-0.1-5.2,1.6c-0.5,0.5-1.3,0.6-1.9,1c-1.5,0.9-3.3,1.5-4.3,2.8c-1.1,1.4-2.3,2.1-3.7,2.8c-1.7,0.8-3.4,1.8-5.2,2.4
		c-2.2,0.8-4.4,1.1-6.8,0.9c-1.2-0.1-2.5,0.1-3.3,1.3c1.3,0.3,2.6,0.2,3.7,0.7c2.5,1.1,5,2.3,7.4,3.7c2.3,1.4,4.5,3,6.7,4.6
		c1.4,1.1,2.9,1.9,4.6,2c1.5,0.1,2.6,0.8,3.6,1.7c1,0.9,2,1.2,3.2,1.9c3.2,0.2,6-0.7,8.8-2.4c2.6-1.6,4.6-3.4,5.1-6.5
		c0.3-1.3,0.7-2.6,1.1-4c4.4-0.7,8.3,0.2,11.5,3.3c0.4,0.4,0.8,1,0.9,1.6c0,0.3,0.1,0.6,0.1,0.8c0.7-0.4,1.3-0.9,1.9-1.4
		C-232.6,94-232.6,93.8-232.7,93.7z M-247.1,87.3c-0.4-0.1-1.1-0.6-1.3-1.1c-0.4-1-0.6-2-0.9-3.2c2-0.1,3.8-0.2,5.7-0.2
		c0.3,0,0.7,0.3,0.9,0.6c0.8,1.3,1.4,2.6,2.2,4.2C-243,87.5-245,87.4-247.1,87.3z"/>
	<path class="st6" d="M-128.1,347.1c-0.6-1.9-1.6-3.8-1.3-6c0.1-0.5-0.5-1.2-0.9-1.6c-1.8-1.4-2.8-3.4-3.9-5.4
		c-0.6-1.1-1.2-2.2-1.9-3.3c-1.7-2.7-3.5-5.2-4.9-8s-2.9-5.4-5.1-7.7c-2.5-2.7-4.7-5.6-7.1-8.4c-2.5-2.9-5.1-5.7-7.5-8.7
		c-1.8-2.2-3.5-4.6-5.3-6.8c-1.1-1.3-0.9-2.4-0.2-3.7c0.4,0,0.7-0.2,1-0.1c5.1,1.2,10.3,0.4,15.5,0.8c0.8,0.1,1.8,0.4,2.4-0.6
		c0.6-1.1,1.7-1.4,2.8-1.7c6.6-2,13.4-3,20.3-2.8c0.5,0.1,1-0.1,1.6-0.2c-0.3-1.4-1.3-1-2.1-1.1c-6.2-0.5-12.4,0.4-18.5,1.7
		c-3.7,0.7-7.4,1.2-11.1,1.6c-1.2,0.1-2.5-0.3-3.7-0.7c-1.2-0.4-2.2-0.7-3.5-0.4c-0.9,0.1-1.9,0-2.8-0.3c-2-0.7-3.9-1.4-5.8-2.3
		c-3.7-1.8-7-4.3-9.8-7.2c-5.2-5.4-9.1-11.7-12.9-18.1c-2.6-4.4-5-8.9-7.2-13.5c-1.7-3.6-3-7.3-4.6-11.2c5.1,2.2,9.9,4.3,14.7,6.4
		c6.3,2.7,12.9,4.3,19.5,5.8c1.9,0.5,3.9,0.5,5.9,0.6c0.4,0,0.8-0.2,1.4-0.3c-0.8-1.4-1.9-1.3-3-1.5c-1.8-0.2-3.8-0.3-5.6-0.9
		c-4.1-1.3-8.1-2.5-12-4.2c-3.7-1.6-7.1-3.6-10.6-5.6c-1.2-0.7-2.3-1.6-3.2-3.2c1-0.2,1.6-0.3,2.3-0.3c2,0,4,0.2,6,0.1
		c1.6,0,3.3-0.1,4.8-1.1c-0.3-0.2-0.5-0.5-0.7-0.5c-0.4-0.1-0.8-0.1-1.2-0.1c-4.4,0.5-8.7-0.6-12.8-2.1c-2.1-0.7-3.6-2.2-4-4.4
		c-0.3-1.9-0.8-3.8-0.8-5.7c0-10.8,0-21.6,0-32.4c0-0.6,0.2-1.2,0.2-1.6c5.8,0,11.4,0.2,17,0c8.1-0.3,16-2,23.5-5.2
		c10.4-4.5,18.2-11.5,22.5-22.1c2-4.9,2.9-10,3.3-15.2c1.1-16.5-6.5-34-25.9-41.1c-7.4-2.7-15.1-3.9-23-4.2
		c-14.7-0.4-29.4,0.1-44,2.1c-0.9,0.1-1.7-0.1-2.2-0.6c-0.6,0.5-1.2,0.9-1.9,1.4c0.2,1.5,0.4,3.1,0.4,4.7c0.1,35.8,0,71.7,0.1,107.5
		c0,6.2-0.5,12.4-1.1,18.6c-0.1,1.1-0.5,2.3-1.1,3.1c-3,3.9-6.8,6.7-11.7,7.9c-4.9,1.2-9.8,0.6-14.7,0c-4.4-0.5-8.8-1.3-13.2-2
		c-0.5-0.1-1,0-1.5,0c1.1,0.8,2.3,1,3.4,1.5c1.2,0.5,2.4,1.2,3.6,1.8c0,0,0.1,0,0.2,0c3.7,0.6,7.5,1.3,11.3,1.8
		c2.9,0.3,5.9,0.4,8.8,0.5c1.8,0.1,3.7-0.2,5.5-0.3c0.5,0,1,0.2,1.5,0.3c0.1,0.2,0.1,0.3,0.1,0.5c-2.3,1.4-4.3,3.7-7.6,2.7
		c-1.3-0.4-2.5-0.3-3.5,1.2c2.2,1.6,4.5,0.4,6.6,0.6c0.3,1.2-0.3,1.9-1,2.6c-2.8,2.7-5.7,5.1-9.2,6.8c-5.4,2.6-10.8,5.1-16.6,6.7
		c-1.4,0.4-2.7,1-4.1,1.4c-1.5,0.5-2.9,0.9-4.4,1.3c-2,0.5-4,1.1-6,1.6c-1.3,0.4-2.6,0.8-3.9,1.1c-5.2,1-10.3,2-15.5,3.1
		c-4.4,0.9-8.9,1.9-13.3,2.8c-2,0.4-4.1,0.7-6.1,1.2c-1.6,0.4-3.2,1-4.8,1.5c-0.6,0.2-1.2,0.3-1.8,0.5c-4,1.3-7.9,2.6-11.8,3.9
		c-0.7,0.3-1.7,0.4-1.9,1.6c0.6,0,1.1,0.1,1.5,0c1.6-0.6,3.1-1.2,4.7-1.7c5.6-2,11.4-3.5,17.3-4.5c2.3-0.3,4.4-1.3,6.7-1.7
		c3.3-0.7,6.7-1.1,10.1-1.7c5.7-1,11.4-1.8,17-2.9c7.7-1.5,15.3-3.4,22.7-6c1-0.4,2.1-1,3.2-0.3c1.3,0.8,2.1,0.2,3.1-0.7
		c1.4-1.2,3-2.3,4.7-3.2c2-1.1,4.2-1.9,6.3-2.9c2.1-0.9,4.3-1.4,6.1-3.2c2-2,4.7-3.3,7.1-4.8c1.2-0.7,2.5-1.2,4.2-2.1
		c0.5-1.8,1.9-3.4,4.4-3.5c0.8-1.4,0.6-3.3,2.9-3.2c0.4,1.3-0.1,2.3-0.6,3.4c-0.3,0.6-0.8,1.2-0.7,1.7c0.4,2.8-0.9,5.3-1.6,7.9
		c-0.3,1.4-0.9,2.5-2.2,3.3s-1.4,1.4-0.9,3c0.2,0.6,0.4,1.3,0.3,1.8c-0.4,1.5-0.9,2.9-1.5,4.3c-2.5,5.5-5,11-7.6,16.5
		c-4.2,8.9-8.9,17.5-14.5,25.6c-6.6,9.5-15.3,16.6-26.2,20.9c-6.8,2.7-13.8,3.8-21.1,3.3c-3.6-0.3-7.3-0.7-10.9-1.2
		c-7.8-1-15.7-1.6-23.6-1.1c-7.5,0.5-14.6,2.2-21.6,4.9c-0.8,0.3-1.6,0.6-1.6,2c1.3-0.3,2.7-0.3,3.7-0.9c1.8-1,3.8-1.2,5.7-1.7
		c5.6-1.3,11.3-1.7,17.1-1.7c6.3,0,12.6,0.8,18.8,1.7c1.8,0.2,3.6,0.3,5.4,0.7c1.1,0.3,2.7,0.7,3.1,1.5c0.9,1.6,2.1,1.6,3.4,1.2
		c3.3-1.1,6.8-0.8,10.2-0.9c2.1,0,4.3-0.2,6.4-0.6c3.9-0.8,7.7-1.9,11.3-3.7c1-0.5,2.1-1.3,3.7-0.8c-0.4,1-0.7,1.9-1.2,2.6
		c-1.2,1.8-2.6,3.6-3.9,5.4c-4.9,6.6-9.8,13.3-14.8,19.8c-5.2,6.8-9.8,13.8-14.3,21c-3.7,5.9-7.3,11.8-10.5,18
		c-1.6,3.2-3.8,5.9-8,5.2c0,0-0.1,0-0.2,0c-1.5,0.1-1.8,0.8-1,2c1.3,1.9,1.3,2.2-0.5,3.5c-3.4,2.4-6.7,4.9-10.6,6.5
		c-0.2,0.1-0.4,0.5-0.7,0.8c1.3,0.8,2.4,1.4,3.8,2.2c2.4-4.3,6.3-6.7,11.1-8.8c-0.1,2.8-1.5,4.7-3,6.5s-3,3.6-4.7,5.6
		c1.1,0.2,1.8,0.3,2.6,0.5c-0.1,0.6-0.1,1.1-0.2,1.5c-0.6,1.7-1.4,3.4-1.8,5.2c-1.3,5.1-2.4,10.2-3.5,15.4c-0.6,2.9-1,5.9-2.7,8.4
		c-0.4,0.5-0.4,1.7,0,2.1c1.2,1.2,1.2,2.7,1.2,4.2c0,4.2-0.1,8.5,0.2,12.7c0.5,8,2.6,15.8,4.3,23.7c0.4,2.1,1.4,4.1,1.9,6.3
		c0.2,1.2,1.2,2.2,2,3.6c0.1-0.8,0.3-1.1,0.2-1.3c-0.5-2-1-4-1.5-6c-1-3.7-1.9-7.4-2.8-11.1c-0.2-0.7-0.2-1.4-0.3-2.1
		c-0.1-1.3-0.3-2.5-0.4-3.8c-0.4-3.2-0.8-6.5-1.1-9.7c-0.1-1-0.2-2.1,0.9-2.8c0.6,0.5,1.2,0.9,2,1.4c0.5-1.3-0.1-2-0.6-2.8
		c-1.4-2.6-2.6-5.3-2.4-8.4c0.7-7.9,1.9-15.7,4.1-23.3c0.6-2.1,1-4.2,1.8-6.2c0.6-1.6,1.6-3,2.4-4.4c0.3-0.6,0.8-1.2,0.9-1.9
		c0.3-2.6,0.6-5.1,2.3-7.2c0.2-0.2,0.1-0.6,0.2-0.9c0.4-1.1,0.6-2.2,1.1-3.2c2.3-4.5,4.5-9.1,7-13.6c2.6-4.6,5.4-9.1,8.1-13.6
		c1-1.7,2.3-3.3,3.4-4.9c0.7-1,1.5-2,2.2-3.1c1.9-3,3.8-6.1,5.7-9.1c0.3-0.4,0.9-0.9,1.3-0.8s0.9,0.7,1,1.2c0.3,1.8,0.3,3.6-0.8,5.3
		c-0.4,0.6-0.9,1.4-1,2.1c0,0.4,0.5,1.2,0.9,1.4c0.5,0.2,1.4-0.1,1.6-0.5c0.3-0.7,0.5-1.5,0.5-2.3c0.1-1.6,0-3.3,0-5
		c0-1.9,0.7-3.4,2.4-4.3c0.7,0.6,1.3,1,1.8,1.5c1.3-1.1,0.9-2,0.2-2.9c-1.7-2.3-1.4-4.3,0.4-6.5c3.2-3.9,6.2-8,9.3-11.9
		c0.6-0.7,1.4-1.1,2.1-1.7c1.1,1.4,0.7,2.8,0.7,4c0.1,3.7,0.5,7.4,1.8,11c1.8,4.9,5.3,8.7,7.8,13.1c1.6,2.9,3.6,5.5,5.1,8.4
		c1,2,2.4,4.1,2.5,6.6c0,0.6,0.6,1.1,0.9,1.7c0.2-0.1,0.5-0.2,0.5-0.4c-0.1-1.1,0-2.2-0.3-3.2c-0.6-1.9-1.4-3.9-2.3-5.7
		c-2.6-5.1-5.2-10.2-8.2-15.1c-1.9-3.2-3-6.4-3.7-10c-1.3-6.9-0.2-13.4,2.2-19.9c1.1-3.2,3.5-5.5,5.2-8.3c1.7-2.7,4.4-4.5,5.8-7.3
		c0.3-0.6,1.1-0.9,2.1-1.7c0.3,1.3,0.5,2.1,0.6,2.9c0.3,2.7,0.4,5.4,0.8,8.1c0.3,1.5,0.2,2.9-0.4,4.2c-0.4,1-1,2-1.5,3
		c-0.3,0.6-0.6,1.2,0.2,1.7c1.1-0.3,2.2-0.6,3.5-0.9c0.5,1.9,0.8,3.5,1.3,5.1c1,2.9,1.7,5.8,1.6,8.9c0,0.9-0.3,2.1,1,2.3
		c1.6,0.2,1.5-1.1,1.7-2.1c0.3-1.3,0.9-1.5,2.1-1c0.4,0.3,0.9,0.6,1.3,1c0.9,0.8,1.9,0.9,3.4,0.2c-0.9-0.7-1.4-1.4-2-1.6
		c-4.5-1.7-6.5-5.7-7.9-9.7c-1.1-3.2-1.5-6.8-1.9-10.3c-0.3-3-0.3-5.9-0.3-8.9c-0.1-0.9,0-2,1.2-2.3c1.2,0.5,1,2.5,2.8,2.3
		c0.6-2,0.5-3.7-1.1-5.4c-2.4-2.5-2.4-5.2-0.3-8.5c1.4-2.1,2.8-4.3,4.2-6.4c0.9-1.3,1.7-2.6,2.6-3.9c0.1,0,0.3,0.1,0.5,0.1
		c0.1,0.8,0.4,1.6,0.4,2.4c0,1.3-0.2,2.5-0.4,3.8c-0.5,4.3-1,8.5-0.3,12.7c0.2,1,0.2,2.1-0.1,3.1c-0.3,0.9-0.3,1.7,0.2,2.5
		c0.7,1.4,0.9,2.9,0.2,4.4c-0.5,1-0.2,1.8,0.3,2.7c0.7,1.3,1.2,2.6,1.6,4c1.4,4.3,3,8.6,4.1,13c0.6,2.6,2.8,4.7,2.4,7.6
		c-0.1,0.5,0.9,1.2,1.4,1.8c1.1,1.4,2.1,2.8,3.1,4.2c0.3,0.5,0.5,1.1,0.8,1.5c2.1,2.8,4.2,5.6,5.3,9c0.6,1.7,1.9,2.2,3.9,1.9
		c-0.2-1.7-1.4-2.9-2.3-4.3c-2.2-3.4-4.4-6.8-6.5-10.3c-0.5-0.8-0.5-2-1.1-2.6c-2-2-2.7-4.7-3.8-7.1c-1.7-3.6-2.7-7.5-3.8-11.3
		c-0.4-1.4,0-3.1-0.3-4.6c-0.3-1.6-1.3-3.1-1.6-4.7c-0.3-2-0.3-4.1-0.4-6.2c-0.1-4.1-0.3-8.1-0.4-12.2c0-1,0.3-1.9,1.3-2.2
		c0.2,0.1,0.4,0.2,0.5,0.3c0.2,0.4,0.5,0.8,0.7,1.2c1.8,3.8,4.1,7.2,7.1,10.2c2.9,2.9,5.9,5.4,9.9,6.6c1.5,0.4,2.7,1.3,4.1,1.9
		c0.4,0.3,1,0.5,1.5,0.5c2.6,0,5.1,0.8,7.3,2c1.5,0.9,3.1,1.1,5.1,1.1c-0.5-1.3-1.3-1.8-2.4-2.1c-0.8-0.2-1.5-0.4-2.3-0.6
		c-3.4-1-6-3.9-9.8-3.8c-0.3,0-0.5-0.2-0.7-0.3c-4.1-2.2-8.1-4.5-11-8.3c-2-2.6-4-5.2-5.1-8.3c-1.3-3.6-2.7-7.2-3.3-11
		c-0.3-1.5-0.7-3.2-0.4-4.7c1.1-6.4,4.3-12,7.5-17.5c0.3-0.6,0.7-1.1,0.9-1.7c0.9-1.9,1.6-3.9,2.4-5.8c1.2-3,2.4-6.1,3.7-9.1
		c0.8-1.7,1.7-3.3,1.9-5.3c0.3-1.7,1.1-3.5,2.9-4.6c0.9,1.4,2.2,2.6,2.5,3.9c0.6,2.7,0.9,5.5,0.9,8.3c0.1,4.6-0.2,9.1-0.3,13.7
		c0,0.8-0.1,1.8,1,2.5c0.2-0.6,0.5-1,0.6-1.5c0.6-4.6,1.1-9.1,1.6-13.6c0.1-1.1-0.1-2.2,1-2.9c1.3,0.3,1.7,1.4,2.3,2.3
		c1.2,2,2.2,4.1,3.9,5.7c1,1,1.7,2.2,2.7,3.3c0.9,1.1,1.1,2.3,0.6,3.6c-1.9,5.1-4.5,9.7-9.4,12.6c-0.3,0.2-0.5,0.5-0.7,0.8
		c0.1,0.2,0.1,0.3,0.2,0.5c0.7-0.1,1.5-0.2,2.1-0.5c4.1-2.2,7.1-5.6,9-9.9c0.2-0.6,0.6-1.1,1.2-2.1c0.6,1.3,1.1,2.1,1.3,2.9
		c1.2,4.6,0.6,9.1-0.2,13.7c-0.4,1.9-0.7,3.8,0.2,5.7c0.4-0.8,0.7-1.6,0.8-2.4c0.4-4.7,0.8-9.4,0.9-14.1c0.1-1.9,0.5-3.2,2.5-3.7
		c0.1,0,0.1-0.2,0.2-0.4c-0.9-2.3-4.4-3.5-2.8-7c0.4,0.2,0.7,0.3,0.9,0.5c2.3,1.9,3.7,4.5,5.2,6.9c0.3,0.5,0.5,1.3,0.4,1.8
		c-0.3,1.2,0.3,1.7,1.2,2.3c2.8,1.9,5.5,4,7.8,6.6c2.5,2.7,4.3,5.9,5,9.4c0.6,2.6,0.6,5.4,0.5,8.1c-0.1,2.1-0.3,4.3-1.8,6.1
		c-0.7,0.9-0.7,2.1-0.3,3.7c0.8-0.9,1.4-1.4,1.7-2c1.9-3.9,3.4-8,3-12.6c-0.1-0.6,0.3-1.3,0.6-2.1c0.9,0.6,1.5,0.9,1.9,1.3
		c2.3,2.6,4.7,5.1,6.9,7.7c3.3,4,6.4,8.2,9.8,12.1c3.9,4.6,7.5,9.3,10.3,14.7c0.4,0.8,1,1.5,1.5,2.2c1.2,1.9,2.3,3.8,3.5,5.7
		c1.7,2.8,2.2,6.1,4,8.9c1.9,2.9,2.9,6.5,3.9,9.9c1,3.6,1.5,7.3,2.3,11c0.1,0.4,0.3,0.9,0.5,1.3c0.3-0.6,0.4-1.2,0.4-1.7
		c-0.1-3.9-0.9-7.6-1.9-11.3C-126.2,352.8-127.3,350-128.1,347.1z M-203.6,116.5c1.4-0.2,2.9-0.6,4.5-0.7c5.9-0.5,11.8-0.9,17.6,0.8
		c7.7,2.1,12.7,6.8,13.9,15c1.5,9.4-2,20.4-15.4,24.2c-6.4,1.8-12.8,1.6-19.3,0.8c-0.4,0-0.8-0.2-1.3-0.4
		C-203.6,143-203.6,129.9-203.6,116.5z M-197.1,263.3c-1.2-1-2.2-1.5-2.7-2.3c-3.1-4.7-6.1-9.5-7.9-14.9c-0.5-1.6-1.1-3.2-1.5-4.8
		c-0.2-1-0.1-2.1-0.2-3.2c0.2-0.1,0.4-0.1,0.6-0.2c0.2,0.3,0.5,0.5,0.8,0.9c3.2,5.7,6.4,11.5,9.6,17.3c0.8,1.3,1.2,2.7,1.6,4.2
		C-196.6,261-197,261.9-197.1,263.3z"/>
</g>
</svg>
